<?xml version="1.0" encoding="UTF-8" standalone="no"?>
<!DOCTYPE svg PUBLIC "-//W3C//DTD SVG 1.1//EN" "http://www.w3.org/Graphics/SVG/1.1/DTD/svg11.dtd">
<svg width="100%" height="100%" viewBox="0 0 100 100" version="1.1" xmlns="http://www.w3.org/2000/svg" xmlns:xlink="http://www.w3.org/1999/xlink" xml:space="preserve" xmlns:serif="http://www.serif.com/" style="fill-rule:evenodd;clip-rule:evenodd;stroke-linejoin:round;stroke-miterlimit:2;">
    <g transform="matrix(0.102579,0,0,0.102579,-2.52065,-20.495)">
        <g id="ph-handshake-thin">
            <path d="M991.109,584.779L892.738,396.394C884.482,380.986 868.49,370.683 850.093,370.683C842.309,370.683 834.955,372.528 828.445,375.803L828.722,375.677L732.222,423.925L659.454,423.925L524.319,362.781C518.505,360.088 511.7,358.518 504.528,358.518C499.743,358.518 495.122,359.217 490.76,360.519L491.1,360.432L290.389,418.945L195.276,371.391C189.044,368.243 181.691,366.399 173.908,366.399C155.511,366.399 139.519,376.7 131.387,391.848L131.261,392.106L32.89,580.495C29.457,586.94 27.44,594.59 27.44,602.71C27.44,621.395 38.115,637.586 53.699,645.518L53.972,645.644L151.411,694.364L368.788,864.342C373.833,868.33 379.838,871.357 386.384,873.028L386.714,873.099L618.542,931.056C622.001,931.954 625.972,932.47 630.063,932.47L630.074,932.47L630.073,932.47L630.091,932.47C643.371,932.47 655.399,927.107 664.126,918.429L811.312,771.242C811.609,770.947 811.89,770.64 812.164,770.324L874.059,697.916L970.028,649.932C985.885,641.874 996.56,625.682 996.56,606.997C996.56,598.876 994.544,591.227 990.984,584.521L991.11,584.781L991.109,584.779ZM797.449,738.286L633.41,618.985C630.805,617.073 627.536,615.925 623.998,615.925C620.378,615.925 617.039,617.127 614.358,619.153L614.398,619.124L563.199,657.524C544.685,671.423 521.318,679.781 496,679.781C470.682,679.781 447.315,671.423 428.51,657.315L428.801,657.524L407.117,641.262C403.214,638.312 400.717,633.679 400.717,628.463C400.717,624.046 402.507,620.046 405.402,617.151L561.941,460.612C564.842,457.726 568.838,455.939 573.251,455.925L726.305,455.925L844.813,682.875L797.449,738.286ZM60.219,607.636C59.72,606.162 59.431,604.463 59.431,602.698C59.431,599.994 60.107,597.448 61.299,595.219L61.257,595.304L159.628,406.915C162.378,401.776 167.71,398.339 173.844,398.339L173.876,398.339L173.874,398.339L173.889,398.339C176.468,398.339 178.903,398.957 181.054,400.052L180.964,400.011L266.28,442.667L153.093,659.424L68.284,617.02C64.458,615.093 61.57,611.775 60.249,607.747L60.217,607.635L60.219,607.636ZM641.5,895.8C638.596,898.692 634.591,900.48 630.168,900.48C628.795,900.48 627.462,900.308 626.19,899.984L626.301,900.008L394.473,842.051C392.182,841.47 390.181,840.462 388.467,839.108L388.5,839.133L180.348,676.369L298.613,449.881L500.054,391.155C501.396,390.749 502.938,390.515 504.535,390.515C506.924,390.515 509.191,391.039 511.228,391.977L511.129,391.936L581.826,423.926L573.124,423.926C559.911,423.926 547.954,429.301 539.319,437.983L382.778,594.524C374.09,603.21 368.716,615.211 368.716,628.468C368.716,644.117 376.205,658.017 387.794,666.779L387.915,666.866L409.599,683.128C433.405,700.997 463.448,711.742 496.001,711.742C528.554,711.742 558.598,700.996 582.778,682.859L582.403,683.128L624.145,651.817L775.448,761.853L641.5,895.8ZM963.781,611.923C962.429,616.063 959.54,619.381 955.806,621.266L955.715,621.308L870.906,663.712L757.719,446.954L843.035,404.298C845.113,403.247 847.564,402.632 850.159,402.632C856.291,402.632 861.621,406.067 864.328,411.118L864.37,411.204L962.741,599.589C963.892,601.733 964.567,604.279 964.567,606.984C964.567,608.75 964.279,610.448 963.747,612.035L963.78,611.923L963.781,611.923ZM463.523,1003.8C461.733,1010.82 455.468,1015.93 448.01,1015.93C446.629,1015.93 445.288,1015.75 444.009,1015.42L444.12,1015.45L323.561,985.311C315.876,983.34 309.205,979.754 303.651,974.918L303.709,974.968L213.502,896.554C210.105,893.604 207.969,889.278 207.969,884.454C207.969,875.618 215.132,868.455 223.968,868.455C228.007,868.455 231.697,869.952 234.512,872.421L234.494,872.405L324.705,950.819C326.54,952.414 328.766,953.609 331.218,954.244L331.33,954.269L451.877,984.402C458.894,986.2 463.998,992.468 463.998,999.928C463.998,1001.31 463.824,1002.64 463.497,1003.92L463.521,1003.8L463.523,1003.8Z" style="fill:rgb(0,119,182);fill-rule:nonzero;stroke:rgb(128,128,128);stroke-width:0.54px;"/>
        </g>
    </g>
</svg>
