<?xml version="1.0" encoding="UTF-8" standalone="no"?>
<!DOCTYPE svg PUBLIC "-//W3C//DTD SVG 1.1//EN" "http://www.w3.org/Graphics/SVG/1.1/DTD/svg11.dtd">
<svg width="100%" height="100%" viewBox="0 0 100 100" version="1.1" xmlns="http://www.w3.org/2000/svg" xmlns:xlink="http://www.w3.org/1999/xlink" xml:space="preserve" xmlns:serif="http://www.serif.com/" style="fill-rule:evenodd;clip-rule:evenodd;stroke-linejoin:round;stroke-miterlimit:2;">
    <g transform="matrix(0.0872096,0,0,0.0872096,-2.32573,5.95918)">
        <g id="kiko-users">
            <path d="M1075,802C1091.67,827.333 1100,855.333 1100,886L1100,926C1100,937.333 1093.17,948.5 1079.5,959.5C1065.83,970.5 1030.17,980.833 972.5,990.5C914.833,1000.17 827,1005 709,1005C591,1005 503.333,1000.17 446,990.5C388.667,980.833 353.167,970.5 339.5,959.5C325.833,948.5 319,937.333 319,926L319,886C319,855.333 327.167,827.333 343.5,802C359.833,776.667 382,757.667 410,745L540,685C553.333,679.667 565.667,669.667 577,655C581.667,647 584,639.333 584,632C584,624.667 582,618 578,612C548.667,561.333 534,506.333 534,447C532.667,413.667 537.667,381.333 549,350C560.333,318.667 577.333,290.667 600,266C602,252.667 603,240 603,228C603,194 595.667,158.667 581,122C566.333,85.333 536.333,67 491,67C445.667,67 415.5,85.5 400.5,122.5C385.5,159.5 378,194.667 378,228C378,275.333 389.667,319.667 413,361C423,377 428,394.333 428,413C428,433 421.667,452.667 409,472C392.333,495.333 371.667,512.333 347,523L217,583C200.333,590.333 187.167,601.667 177.5,617C167.833,632.333 163,649 163,667L163,694C201.667,705.333 239.667,712 277,714C286.333,714.667 293.833,718.167 299.5,724.5C305.167,730.833 307.667,738.333 307,747C306.333,755.667 302.833,762.833 296.5,768.5C290.167,774.167 282.667,776.667 274,776L271,776C225,771.333 189.5,765.833 164.5,759.5C139.5,753.167 122.5,745.833 113.5,737.5C104.5,729.167 100,719 100,707L100,667C100,636.333 108.333,608.333 125,583C141.667,557.667 163.667,538.667 191,526L321,466C335.667,460 348,450 358,436C362.667,430.667 365,423.333 365,414C365,408 363.333,401 360,393C330,341 315.333,286 316,228C316,189.333 322.333,153 335,119C347.667,85 367.167,57.5 393.5,36.5C419.833,15.5 452.333,5 491,5C529.667,5 562.167,15.5 588.5,36.5C614.833,57.5 634.333,85 647,119C659.667,153 666,189.333 666,228L666,229C681.333,225.667 695.667,224 709,224C747.667,224 780.167,234.5 806.5,255.5C832.833,276.5 852.333,304 865,338C877.667,372 884,408.333 884,447C884.667,505 870,560 840,612C836.667,618.667 835,625.333 835,632C835,640.667 837.333,648.333 842,655C852,669 864.333,679 879,685L1009,745C1036.33,757.667 1058.33,776.667 1075,802ZM1022.5,835.5C1012.83,820.5 999.667,809.333 983,802L853,742C828.333,731.333 807.667,714.333 791,691C778.333,671.667 772,652 772,632C772,612.667 777,595 787,579C810.333,538.333 822,494.333 822,447C822,413.667 814.5,378.5 799.5,341.5C784.5,304.5 754.333,286 709,286C663.667,286 633.667,304.333 619,341C604.333,377.667 597,413 597,447C597,494.333 608.667,538.333 632,579C642,595 647,612.667 647,632C647,652 640.667,671.667 628,691C611.333,714.333 590.667,731.333 566,742L435,801C418.333,809 405.167,820.5 395.5,835.5C385.833,850.5 381,867.333 381,886L381,913C400.333,920.333 438.833,927 496.5,933C554.167,939 625,942 709,942C793,942 864,939 922,933C980,927 1018.67,920.333 1038,913L1038,886C1037.33,867.333 1032.17,850.5 1022.5,835.5Z" style="fill:rgb(0,119,182);fill-rule:nonzero;stroke:rgb(0,119,182);stroke-width:11.47px;"/>
        </g>
    </g>
</svg>
