<?xml version="1.0" encoding="UTF-8" standalone="no"?>
<!DOCTYPE svg PUBLIC "-//W3C//DTD SVG 1.1//EN" "http://www.w3.org/Graphics/SVG/1.1/DTD/svg11.dtd">
<svg width="100%" height="100%" viewBox="0 0 100 100" version="1.1" xmlns="http://www.w3.org/2000/svg" xmlns:xlink="http://www.w3.org/1999/xlink" xml:space="preserve" xmlns:serif="http://www.serif.com/" style="fill-rule:evenodd;clip-rule:evenodd;stroke-linejoin:round;stroke-miterlimit:2;">
    <g transform="matrix(0.108052,0,0,0.108052,-5.32252,-21.3625)">
        <g id="ph-eye-thin">
            <path d="M974.621,653.982C973.266,650.931 940.574,578.416 867.312,505.15C799.484,437.31 682.781,356.447 512,356.447C341.219,356.447 224.516,437.31 156.688,505.15C83.426,578.416 50.735,650.931 49.379,653.982C48.507,655.893 47.999,658.127 47.999,660.48C47.999,662.833 48.507,665.067 49.42,667.078L49.379,666.978C50.734,670.029 83.43,742.525 156.688,815.775C224.516,883.599 341.223,964.447 512,964.447C682.777,964.447 799.484,883.599 867.312,815.775C940.57,742.525 973.265,670.029 974.621,666.978C975.493,665.067 976.001,662.833 976.001,660.48C976.001,658.127 975.493,655.893 974.58,653.882L974.621,653.982ZM843.855,793.978C751.558,885.861 639.906,932.447 512,932.447C384.094,932.447 272.441,885.861 180.145,793.978C141.646,755.706 108.877,711.73 83.197,663.412L81.774,660.478C108.874,609.211 141.645,565.223 180.123,526.969L180.149,526.943C272.446,435.045 384.094,388.447 512.001,388.447C639.908,388.447 751.556,435.045 843.853,526.943C882.355,565.224 915.127,609.211 940.805,657.542L942.228,660.478C915.127,711.732 882.357,755.708 843.883,793.952L843.856,793.978L843.855,793.978ZM512,484.482C414.798,484.482 336,563.28 336,660.482C336,757.684 414.798,836.482 512,836.482C609.202,836.482 688,757.684 688,660.482C687.887,563.325 609.157,484.595 512.011,484.482L512,484.482ZM512,804.482C432.471,804.482 368,740.011 368,660.482C368,580.953 432.471,516.482 512,516.482C591.529,516.482 656,580.953 656,660.482C655.908,739.974 591.492,804.39 512.009,804.482L512,804.482Z" style="fill:rgb(0,119,182);fill-rule:nonzero;stroke:rgb(128,128,128);stroke-width:0.51px;"/>
        </g>
    </g>
</svg>
